<svg id="Layer_1" data-name="Layer 1" xmlns="http://www.w3.org/2000/svg" viewBox="0 0 314.02 84.49"><defs><style>.cls-1{fill:#e4f51f;}.cls-2{fill:#787878;}.cls-3{fill:#797979;}.cls-4{fill:#7a7a7a;}</style></defs><title>secondsevenlogo</title><path class="cls-1" d="M289,230c2.31-2.37.56-5.58,1.74-8.39.93-2.21.8-5.11,1.18-7.7,1-7,4.86-10.47,12.12-11,3.89-.27,7.53,1.07,11.34,1.07,7.5,0,15,0,22.48,0,4.72,0,6.84-2,7.07-7,.26-5.67.07-11.37.06-17.05,0-2.46-1.54-3.92-3.6-4.73a16.85,16.85,0,0,0-10.25-.91,29.29,29.29,0,0,1-7.37.68c-6.64,0-13.18,1.46-19.86,1.12-1.85-.1-3.73,1-5.55,1.74a3.32,3.32,0,0,0-2.32,3.82c.33,4.26.28,4.26-4.34,4.16-3.09-5.57-.89-11.74,5-13.82a31.82,31.82,0,0,1,11-2.05c5.75.06,11.41-1.39,17.09-1.68,6.31-.32,12.77-1.51,19.07,1.5,4.28,2,6.08,5.38,7,9.43,1.34,6,.79,15.74-.84,21.87-1.42,5.34-5.47,8.82-10.88,8.9-8.5.13-17,.14-25.49,0-3.1-.06-6.11-1.19-9.31-1-4.95.31-5.38,1.07-6.5,6-1.28,5.6-1.69,11.31-2.65,16.95a39.74,39.74,0,0,0,0,13.9h46.05c2.48-1.34.65-4.37,1.95-6.38,1.24-.66,2.58-.31,3.87-.3,3.16,2.69,1.82,5.92.42,8.51A8.29,8.29,0,0,1,339.8,252c-8.83-.12-17.66,0-26.49,0-4.67,0-9.35-.27-14,.08A10.39,10.39,0,0,1,289,247Z" transform="translate(-289 -167.63)"/><path class="cls-1" d="M430,179.25a5.76,5.76,0,0,1-5.12-3.27c2.18-3.51,6.81-3.66,8.3-7,2.36.42,2.92,2.11,4.27,2.78a2.47,2.47,0,0,0,.92.1,9.37,9.37,0,0,1,2.28-.77c12.59.07,24.85,1.51,35.53,9.1a35.88,35.88,0,0,1,11.95,15.39c2.48,5.67,5,11.27,5,17.8,0,6.9-3,12.25-7.2,17.24-8,9.44-18.72,14.07-30.21,17.36a41,41,0,0,1-12.53,2,27.13,27.13,0,0,0-5.79.94c-3.63.66-5.44-1.3-4.75-5a4.32,4.32,0,0,0-.31-2.26,62.06,62.06,0,0,1-2.33-17C430,211,430,195.4,430,179.25ZM438.72,244c3.18-.23,6.37-.35,9.66-.79a59.2,59.2,0,0,0,28.17-11.58c4.68-3.53,8.53-7.89,9.93-14.23.81-3.67,0-6.82-.53-10.14-1.28-8.23-5.58-15.06-11.29-20.74a27.49,27.49,0,0,0-11.39-6.47c-4.43-1.34-9-1.73-13.51-2.35s-9.07-.9-13.41.71a5,5,0,0,0-.31,1.11c0,16.81-.32,33.62.15,50.41C436.32,234.47,436.23,239.43,438.72,244Z" transform="translate(-289 -167.63)"/><path class="cls-2" d="M481.52,167.63c9.89,11.78,17.39,24.73,25.7,37.08s16.34,24.84,24.94,38c1.17-10.91.43-21,1.14-31,.88-12.43.39-24.92,1.69-37.33.1-1,0-2,.76-2.81s1.48-1.52,2.56-1.17a2.25,2.25,0,0,1,1.7,2.21,47.6,47.6,0,0,1-.19,6c-1.16,8.28-.33,16.63-1,24.9-1.15,13.92-.33,27.92-1.68,41.82-.18,1.81.18,4.1-2.13,4.48a5.26,5.26,0,0,1-5.22-2.15c-.87-1.21-1.84-2.36-2.66-3.6q-20.28-30.77-40.55-61.55c-2.1-3.18-4.42-6.22-6.54-9.38C478.47,170.76,478.55,170.71,481.52,167.63Z" transform="translate(-289 -167.63)"/><path class="cls-1" d="M366.87,173.88c.09-1.51.09-3.13,1.82-3.75s2.78.72,3.75,1.83a57.72,57.72,0,0,1,6.15,9.41c8.87,15.4,18.18,30.53,27.52,45.64,3.67,5.94,7.21,12,12,17.25-.15,2.47,3,3.08,3.05,5.42-1.34,2.79-3.74,3.21-5.93,1a29.77,29.77,0,0,1-3.54-4.7c-4.74-7.23-9.66-14.34-14.08-21.78-6.75-11.36-13.79-22.55-20.69-33.83-2.38-3.89-4.68-7.83-7-11.76A3.69,3.69,0,0,0,368.1,177C368.14,175.76,367.34,174.88,366.87,173.88Z" transform="translate(-289 -167.63)"/><path class="cls-3" d="M602.29,249.84c-3.87-.1-4.2-.27-4.26-3.66-.11-5.32-.41-10.61-.84-15.92-1-12.25-1.28-24.56-2.46-36.79-.59-6.11-.3-12.3-1.56-18.35a15.16,15.16,0,0,1-.08-4.48,2.35,2.35,0,0,1,2.64-2.37,2.39,2.39,0,0,1,2.22,2.32c.33,3.13.7,6.27.92,9.41.28,4,.58,8,.79,11.92,1,17.91,3.17,35.75,3.28,53.71C602.94,246.91,603.35,248.28,602.29,249.84Z" transform="translate(-289 -167.63)"/><path class="cls-3" d="M567.79,241.22c-1.07-14.28-1.06-29.4-2.5-44.44-.77-8.09-.94-16.24-1.36-24.37a9.19,9.19,0,0,1,.12-2.48,2.27,2.27,0,0,1,2.07-1.85,2.37,2.37,0,0,1,2.42,1.4,4,4,0,0,1,.38,1.91c-.13,4.67.76,9.26.92,13.9.54,16.1,2.27,32.13,2.43,48.25,0,3.78.49,7.6.49,11.41a12.43,12.43,0,0,1-.27,3c-.35,1.42-1.22,2.36-2.87,2.12-1.48-.22-1.8-1.32-1.83-2.55C567.76,245.66,567.79,243.83,567.79,241.22Z" transform="translate(-289 -167.63)"/><path class="cls-4" d="M366.87,173.88c.47,1,1.27,1.88,1.23,3.09-.32,16.27-.56,32.54.61,48.81.53,7.28.55,14.59,2.28,21.74a6.39,6.39,0,0,1,.13,1.49c0,1.45-.43,2.69-2.07,2.91s-2.36-1.07-2.76-2.34a32.31,32.31,0,0,1-1.07-4.84,83.87,83.87,0,0,1-1-8.38c-.57-11.77-1.65-23.51-1.47-35.32.07-4.62-.62-9.25-.58-13.9,0-3.33.49-6.61.59-9.91C362.81,174.15,364.29,173.51,366.87,173.88Z" transform="translate(-289 -167.63)"/><path class="cls-3" d="M421.13,249.68c-.07-2.34-3.2-3-3.05-5.42-.09-13,.3-25.91-.76-38.86-.38-4.63-.3-9.31-.29-14a133.59,133.59,0,0,0-1.6-19.32c-.38-2.64.14-3,4.05-2.88,2.25,5.07,2.18,10.65,2.36,16,.63,18.77,1.48,37.53,1.42,56.32a13.43,13.43,0,0,0,.22,4C424.22,247.92,423,248.92,421.13,249.68Z" transform="translate(-289 -167.63)"/></svg>